<svg width="38" height="32" viewBox="0 0 38 32" fill="none" xmlns="http://www.w3.org/2000/svg">
<path d="M34.0939 8.26019C34.118 8.59774 34.118 8.93536 34.118 9.2729C34.118 19.5685 26.2817 31.4315 11.9594 31.4315C7.54693 31.4315 3.44798 30.1535 0 27.9354C0.626926 28.0076 1.22966 28.0318 1.8807 28.0318C5.5215 28.0318 8.87307 26.8021 11.5495 24.7044C8.12562 24.632 5.25632 22.3897 4.26773 19.3033C4.75 19.3756 5.2322 19.4239 5.73859 19.4239C6.43781 19.4239 7.1371 19.3274 7.78807 19.1587C4.21956 18.4353 1.54308 15.3008 1.54308 11.5153V11.4189C2.57984 11.9975 3.78553 12.3592 5.06335 12.4074C2.96563 11.0089 1.59132 8.62186 1.59132 5.92133C1.59132 4.47466 1.97704 3.14852 2.65221 1.99115C6.48598 6.71703 12.2487 9.80327 18.7105 10.1409C18.59 9.56221 18.5177 8.95948 18.5177 8.35667C18.5177 4.06475 21.9898 0.568604 26.3057 0.568604C28.5481 0.568604 30.5734 1.50896 31.9961 3.02799C33.7562 2.69044 35.444 2.0394 36.939 1.14729C36.3602 2.9557 35.1306 4.47474 33.5151 5.43913C35.0824 5.27044 36.6014 4.83633 37.9998 4.2336C36.9391 5.77668 35.6129 7.15099 34.0939 8.26019Z" fill="white" fill-opacity="0.5"/>
</svg>
